<?xml version="1.0" encoding="UTF-8" standalone="no"?>
<!-- Created with Inkscape (http://www.inkscape.org/) -->

<svg
   width="28.92783mm"
   height="27.89142mm"
   viewBox="0 0 28.92783 27.89142"
   version="1.1"
   id="svg25129"
   inkscape:version="1.1.2 (0a00cf5339, 2022-02-04)"
   sodipodi:docname="logo1.svg"
   xmlns:inkscape="http://www.inkscape.org/namespaces/inkscape"
   xmlns:sodipodi="http://sodipodi.sourceforge.net/DTD/sodipodi-0.dtd"
   xmlns="http://www.w3.org/2000/svg"
   xmlns:svg="http://www.w3.org/2000/svg">
  <sodipodi:namedview
     id="namedview25131"
     pagecolor="#ffffff"
     bordercolor="#666666"
     borderopacity="1.0"
     inkscape:pageshadow="2"
     inkscape:pageopacity="0.0"
     inkscape:pagecheckerboard="0"
     inkscape:document-units="mm"
     showgrid="false"
     fit-margin-top="0"
     fit-margin-left="0"
     fit-margin-right="0"
     fit-margin-bottom="0"
     inkscape:zoom="0.66368547"
     inkscape:cx="20.340961"
     inkscape:cy="4.5202135"
     inkscape:window-width="1920"
     inkscape:window-height="1050"
     inkscape:window-x="1920"
     inkscape:window-y="0"
     inkscape:window-maximized="1"
     inkscape:current-layer="layer1" />
  <defs
     id="defs25126" />
  <g
     inkscape:label="Layer 1"
     inkscape:groupmode="layer"
     id="layer1"
     transform="translate(-96.761592,-147.11201)">
    <g
       id="g13191"
       transform="matrix(0.35277777,0,0,0.35277777,-192.09879,-33.909736)">
      <path
         style="fill:#ffffff;fill-opacity:1;fill-rule:nonzero;stroke:none;stroke-width:0;stroke-miterlimit:4;stroke-dasharray:none"
         d="m 871.15347,530.5782 c 0.036,-0.12849 0.56223,-1.97212 1.17355,-4.09489 0.60862,-2.12145 1.11019,-3.8823 1.11597,-3.91329 0.0292,-0.17924 -4.66478,-1.33649 -4.70944,-1.16351 -0.0469,0.19253 2.02314,8.59968 2.26182,9.18057 0.0484,0.1235 0.12222,0.11951 0.1581,-0.009 z"
         id="path4705" />
      <path
         style="fill:#ffffff;fill-opacity:1;fill-rule:nonzero;stroke:none;stroke-width:0;stroke-miterlimit:4;stroke-dasharray:none"
         d="m 865.56101,522.66277 1.88465,-1.83916 -4.88112,-1.36951 c -2.68619,-0.75122 -4.9473,-1.36897 -5.02288,-1.37259 -0.0769,-0.004 1.27132,1.44222 2.99578,3.20934 l 3.13617,3.21375 z"
         id="path4701" />
      <path
         style="fill:#ffffff;fill-opacity:1;fill-rule:nonzero;stroke:none;stroke-width:0;stroke-miterlimit:4;stroke-dasharray:none"
         d="m 870.44291,531.31831 c -0.009,-0.1581 -2.21706,-8.75465 -2.46209,-9.58812 l -0.17242,-0.58817 -3.79869,3.70698 3.22219,3.3019 c 1.77181,1.81564 3.21547,3.24176 3.21099,3.16743 z"
         id="path4699" />
      <path
         style="fill:#ffffff;fill-opacity:1;fill-rule:nonzero;stroke:none;stroke-width:0;stroke-miterlimit:4;stroke-dasharray:none"
         d="m 890.70651,556.21044 c 1.07947,0.29002 2.11901,0.53229 2.30803,0.5346 0.23223,0.003 0.70442,-1.28642 1.45716,-3.9861 0.61292,-2.19769 1.11565,-4.05306 1.11662,-4.13272 0.004,-0.0756 -1.59733,1.42408 -3.55373,3.33325 -1.9564,1.90917 -3.50073,3.52563 -3.42526,3.59204 0.0735,0.0696 1.01645,0.36352 2.0972,0.65895 z"
         id="path4697" />
      <path
         style="fill:#ffffff;fill-opacity:1;fill-rule:nonzero;stroke:none;stroke-width:0;stroke-miterlimit:4;stroke-dasharray:none"
         d="m 891.70121,551.61237 c 2.05003,-2.00053 3.66544,-3.63437 3.58914,-3.63327 -0.0742,-9e-4 -2.03967,0.48958 -4.37098,1.08633 -3.72178,0.94908 -4.21762,1.13545 -4.10361,1.52981 0.0733,0.24599 0.35974,1.39394 0.64403,2.55064 l 0.51241,2.10544 z"
         id="path4695" />
      <path
         style="fill:#ffffff;fill-opacity:1;fill-rule:nonzero;stroke:none;stroke-width:0;stroke-miterlimit:4;stroke-dasharray:none"
         d="m 861.94809,526.52733 6.98944,4.10279 -6.16803,-6.34252 -6.16541,-6.3384 -0.36089,0.5803 c -1.6626,2.67506 -1.87911,3.15315 -1.5858,3.51796 0.16897,0.20465 3.44877,2.22032 7.29069,4.47987 z"
         id="path4693" />
      <path
         style="fill:#ffffff;fill-opacity:1;fill-rule:nonzero;stroke:none;stroke-width:0;stroke-miterlimit:4;stroke-dasharray:none"
         d="m 882.54188,553.9055 c 2.46889,0.68713 4.52723,1.21057 4.57507,1.16389 0.10939,-0.10116 -0.95076,-4.41387 -1.13014,-4.59769 -0.068,-0.0697 -1.66563,0.26999 -3.54924,0.75268 -1.88096,0.48679 -3.70686,0.94387 -4.05345,1.01661 -0.34591,0.0721 -0.56075,0.19369 -0.47733,0.2737 0.0809,0.0772 2.16687,0.70437 4.63509,1.39081 z"
         id="path4689" />
      <path
         style="fill:#ffffff;fill-opacity:1;fill-rule:nonzero;stroke:none;stroke-width:0;stroke-miterlimit:4;stroke-dasharray:none"
         d="m 890.81549,565.58278 c 0.1599,-0.15604 2.1898,-7.58268 2.13396,-7.82035 -0.0295,-0.1273 -1.09003,-0.53051 -2.35432,-0.89098 -2.27622,-0.65102 -2.30255,-0.65067 -2.1653,-0.003 0.25177,1.16576 2.17021,8.66426 2.23489,8.73055 0.0367,0.0376 0.10567,0.0277 0.15079,-0.0164 z"
         id="path4687" />
      <path
         style="fill:#ffffff;fill-opacity:1;fill-rule:nonzero;stroke:none;stroke-width:0;stroke-miterlimit:4;stroke-dasharray:none"
         d="m 870.76966,542.76075 c 1.34438,-0.3367 2.43533,-0.65557 2.42791,-0.71103 -0.16174,-1.02016 -2.05168,-7.81139 -2.1732,-7.81287 -0.13703,-9.7e-4 -1.58384,4.85014 -2.5056,8.39646 l -0.19065,0.73837 z"
         id="path4683" />
      <path
         style="fill:#ffffff;fill-opacity:1;fill-rule:nonzero;stroke:none;stroke-width:0;stroke-miterlimit:4;stroke-dasharray:none"
         d="m 859.74799,528.7637 c 4.5258,1.27334 8.31641,2.31692 8.4298,2.321 0.11344,-10e-4 -0.12391,-0.19126 -0.51944,-0.42563 -0.4009,-0.23447 -3.60578,-2.13513 -7.13041,-4.22538 -3.52258,-2.09225 -6.47928,-3.80285 -6.56839,-3.80394 -0.0952,-0.002 -0.68094,0.8566 -1.30552,1.90902 l -1.13067,1.91184 z"
         id="path4681" />
      <path
         style="fill:#ffffff;fill-opacity:1;fill-rule:nonzero;stroke:none;stroke-width:0;stroke-miterlimit:4;stroke-dasharray:none"
         d="m 867.58877,543.20735 c 0.08,-0.078 2.66165,-9.28785 2.6663,-9.50183 -9.2e-4,-0.0871 -1.40979,1.21433 -3.12907,2.89211 l -3.12833,3.05281 1.76646,1.81017 c 0.96893,0.99289 1.79249,1.77812 1.82462,1.74676 z"
         id="path4679" />
      <path
         style="fill:#ffffff;fill-opacity:1;fill-rule:nonzero;stroke:none;stroke-width:0;stroke-miterlimit:4;stroke-dasharray:none"
         d="m 875.48206,551.25352 c 0.005,-0.0924 -0.47345,-2.03407 -1.05457,-4.31793 l -1.0573,-4.14847 -1.10617,0.29235 c -0.6083,0.16136 -1.73812,0.45679 -2.51365,0.65596 l -1.40755,0.36766 3.56829,3.65656 c 1.96452,2.01312 3.56984,3.58298 3.57095,3.49387 z"
         id="path4677" />
      <path
         style="fill:#ffffff;fill-opacity:1;fill-rule:nonzero;stroke:none;stroke-width:0;stroke-miterlimit:4;stroke-dasharray:none"
         d="m 885.39876,557.76268 1.90857,-1.8625 -0.89188,-0.22493 c -0.48597,-0.12477 -2.69386,-0.73174 -4.90162,-1.34951 -2.20776,-0.61777 -4.07995,-1.12543 -4.15352,-1.127 -0.0796,-9.8e-4 1.26659,1.44283 2.99371,3.21268 l 3.13617,3.21375 z"
         id="path4675" />
      <path
         style="fill:#ffffff;fill-opacity:1;fill-rule:nonzero;stroke:none;stroke-width:0;stroke-miterlimit:4;stroke-dasharray:none"
         d="m 888.93957,561.73286 c -0.65109,-2.57976 -1.24881,-4.83141 -1.32294,-5.00854 -0.11028,-0.25792 -0.49596,0.0304 -1.96446,1.46346 l -1.82589,1.7818 6.29835,6.45415 z"
         id="path4673" />
      <path
         style="fill:#ffffff;fill-opacity:1;fill-rule:nonzero;stroke:none;stroke-width:0;stroke-miterlimit:4;stroke-dasharray:none"
         d="m 870.92408,550.62525 4.07148,1.15504 -1.71728,-1.85684 c -0.94297,-1.01956 -2.52672,-2.64249 -3.5196,-3.60667 l -1.80166,-1.74915 -0.66391,2.33683 c -0.36407,1.28247 -0.60916,2.38747 -0.54914,2.44897 0.062,0.0636 1.94621,0.6382 4.18011,1.27182 z"
         id="path4667" />
      <path
         style="fill:#ffffff;fill-opacity:1;fill-rule:nonzero;stroke:none;stroke-width:0;stroke-miterlimit:4;stroke-dasharray:none"
         d="m 848.48114,527.87183 c 1.07297,-0.61481 1.95298,-1.18675 1.95341,-1.27655 0.001,-0.0891 -2.74927,-2.94028 -6.1094,-6.3357 l -6.11542,-6.17507 4.05017,7.2099 c 2.22824,3.97036 4.10148,7.32127 4.15792,7.45431 0.0592,0.13036 0.98766,-0.26477 2.0633,-0.87686 z"
         id="path4665" />
      <path
         style="fill:#ffffff;fill-opacity:1;fill-rule:nonzero;stroke:none;stroke-width:0;stroke-miterlimit:4;stroke-dasharray:none"
         d="m 862.31155,544.91256 4.78589,-1.22574 -1.65192,-1.78987 c -0.90884,-0.99017 -1.71401,-1.79335 -1.78826,-1.79426 -0.0708,-0.004 -1.48508,1.3559 -3.1326,3.01562 l -3.00173,3.02261 z"
         id="path4651" />
      <path
         style="fill:#ffffff;fill-opacity:1;fill-rule:nonzero;stroke:none;stroke-width:0;stroke-miterlimit:4;stroke-dasharray:none"
         d="m 861.98246,548.14201 c 2.05584,0.56325 3.80177,0.95931 3.87633,0.88123 0.0779,-0.076 0.43871,-1.1472 0.8022,-2.38242 0.58334,-1.98739 0.59916,-2.23229 0.14781,-2.15071 -1.01303,0.18546 -8.62521,2.1788 -8.73727,2.28816 -0.21116,0.20606 0.14384,0.32923 3.91093,1.36374 z"
         id="path4647" />
      <path
         style="fill:#ffffff;fill-opacity:1;fill-rule:nonzero;stroke:none;stroke-width:0;stroke-miterlimit:4;stroke-dasharray:none"
         d="m 855.14112,544.18687 c 0.0226,-0.36095 -4.18859,-16.82568 -4.30197,-16.82977 -0.1316,-0.006 -3.95752,2.11699 -3.94084,2.18877 0.006,0.0317 1.76859,3.18354 3.91557,7.00773 2.14567,3.82148 3.99336,7.16263 4.10564,7.4226 0.11297,0.2593 0.21247,0.35031 0.22162,0.21064 z"
         id="path4645" />
      <path
         style="fill:#ffffff;fill-opacity:1;fill-rule:nonzero;stroke:none;stroke-width:0;stroke-miterlimit:4;stroke-dasharray:none"
         d="m 842.8798,531.01798 c 0.50452,-0.28822 1.41003,-0.79165 2.00753,-1.11993 0.60289,-0.32685 1.08855,-0.61935 1.08421,-0.65114 -0.027,-0.16172 -7.97426,-14.18398 -8.11769,-14.32551 -0.0914,-0.0936 0.667,3.10189 1.68638,7.09394 1.0187,3.99271 1.97994,7.77068 2.13639,8.39445 l 0.28654,1.13849 z"
         id="path4643" />
      <path
         style="fill:#ffffff;fill-opacity:1;fill-rule:nonzero;stroke:none;stroke-width:0;stroke-miterlimit:4;stroke-dasharray:none"
         d="m 854.59013,544.63116 c -0.0538,-0.13028 -1.85551,-3.36419 -4.00323,-7.18367 -2.15039,-3.82087 -3.98532,-7.10109 -4.0836,-7.29202 -0.13573,-0.2731 -0.57309,-0.12246 -1.99138,0.68259 -0.9988,0.56779 -1.90215,1.11581 -2.00602,1.21717 -0.13667,0.13337 1.56856,1.98196 5.99735,6.49842 3.40263,3.47535 6.14332,6.21054 6.08688,6.07751 z"
         id="path4641" />
      <path
         style="fill:#ffffff;fill-opacity:1;fill-rule:nonzero;stroke:none;stroke-width:0;stroke-miterlimit:4;stroke-dasharray:none"
         d="m 886.09069,571.53828 3.67022,-3.58162 -4.17548,1.05698 c -2.2933,0.581 -4.24929,1.12899 -4.34563,1.22301 -0.14152,0.13252 0.72857,3.86493 1.08738,4.67145 0.0545,0.1242 1.65745,-1.31461 3.76351,-3.36982 z"
         id="path4635" />
      <path
         style="fill:#ffffff;fill-opacity:1;fill-rule:nonzero;stroke:none;stroke-width:0;stroke-miterlimit:4;stroke-dasharray:none"
         d="m 885.24855,576.30498 c 1.20442,0.34152 2.26666,0.54962 2.36295,0.461 0.0963,-0.094 0.69536,-2.03802 1.33429,-4.31979 l 1.15935,-4.14773 -3.65724,3.56896 c -2.01244,1.96385 -3.59982,3.62232 -3.52434,3.68873 0.0738,0.0641 1.12131,0.40126 2.32499,0.74883 z"
         id="path4633" />
      <path
         style="fill:#ffffff;fill-opacity:1;fill-rule:nonzero;stroke:none;stroke-width:0;stroke-miterlimit:4;stroke-dasharray:none"
         d="m 838.91605,531.60285 2.2867,0.0151 -1.73155,-6.76837 c -0.95449,-3.72184 -1.92863,-7.49255 -2.16563,-8.37657 -0.40636,-1.50051 -0.44351,-1.05737 -0.56048,6.74779 -0.0663,4.59387 -0.123,8.35401 -0.11767,8.35947 0.003,0.003 1.03424,0.0126 2.28863,0.0226 z"
         id="path4629" />
      <path
         style="fill:#ffffff;fill-opacity:1;fill-rule:nonzero;stroke:none;stroke-width:0;stroke-miterlimit:4;stroke-dasharray:none"
         d="m 846.6947,541.07363 1.82794,-1.78381 -3.13617,-3.21376 c -1.72446,-1.76711 -3.13424,-3.15292 -3.12696,-3.08132 0.0173,0.29528 2.31982,9.18532 2.46032,9.51113 0.12871,0.29731 0.43191,0.0735 1.97489,-1.43226 z"
         id="path4627" />
      <path
         style="fill:#ffffff;fill-opacity:1;fill-rule:nonzero;stroke:none;stroke-width:0;stroke-miterlimit:4;stroke-dasharray:none"
         d="m 850.12796,544.78458 4.94429,1.39323 -3.04096,-3.21327 c -1.67449,-1.76917 -3.10509,-3.2134 -3.17941,-3.21424 -0.073,-8.9e-4 -0.92757,0.81715 -1.89926,1.81736 l -1.76899,1.82507 z"
         id="path4625" />
      <path
         style="fill:#ffffff;fill-opacity:1;fill-rule:nonzero;stroke:none;stroke-width:0;stroke-miterlimit:4;stroke-dasharray:none"
         d="m 875.05609,573.4108 c 1.47233,0.40825 3.55903,0.98808 4.64171,1.29097 l 1.96617,0.55202 -0.59373,-2.30223 c -0.33026,-1.2626 -0.65988,-2.35773 -0.73057,-2.43017 -0.15604,-0.1599 -7.95026,1.81231 -7.94997,2.00947 -0.004,0.0769 1.19946,0.47176 2.66639,0.87994 z"
         id="path4607" />
      <path
         style="fill:#ffffff;fill-opacity:1;fill-rule:nonzero;stroke:none;stroke-width:0;stroke-miterlimit:4;stroke-dasharray:none"
         d="m 886.31031,581.80322 c 0.6231,-2.20229 1.0733,-4.06911 0.99728,-4.147 -0.21873,-0.22414 -4.37699,-1.35053 -4.5075,-1.22317 -0.1148,0.11204 2.09615,9.09009 2.28353,9.28211 0.0527,0.054 0.60425,-1.70896 1.22669,-3.91194 z"
         id="path4605" />
      <path
         style="fill:#ffffff;fill-opacity:1;fill-rule:nonzero;stroke:none;stroke-width:0;stroke-miterlimit:4;stroke-dasharray:none"
         d="m 833.73674,531.53957 2.20499,0.0161 0.0869,-8.60428 c 0.047,-4.73119 0.0293,-8.41863 -0.0397,-8.18991 -0.87352,2.8589 -4.62592,16.59307 -4.55523,16.66551 0.052,0.0533 1.09052,0.10312 2.30305,0.11253 z"
         id="path4601" />
      <path
         style="fill:#ffffff;fill-opacity:1;fill-rule:nonzero;stroke:none;stroke-width:0;stroke-miterlimit:4;stroke-dasharray:none"
         d="m 879.68711,577.78727 1.8867,-1.84116 -4.88383,-1.36819 c -2.68348,-0.75254 -4.9439,-1.37096 -5.02083,-1.37459 -0.079,-0.002 1.26995,1.44489 2.99441,3.21202 l 3.13616,3.21374 z"
         id="path4599" />
      <path
         style="fill:#ffffff;fill-opacity:1;fill-rule:nonzero;stroke:none;stroke-width:0;stroke-miterlimit:4;stroke-dasharray:none"
         d="m 884.41188,586.26128 c -10e-4,-0.0763 -0.56409,-2.35116 -1.25418,-5.05564 l -1.24779,-4.91512 -3.7741,3.68298 3.13618,3.21375 c 1.72712,1.76985 3.13696,3.15028 3.13989,3.07403 z"
         id="path4597" />
      <path
         style="fill:#ffffff;fill-opacity:1;fill-rule:nonzero;stroke:none;stroke-width:0;stroke-miterlimit:4;stroke-dasharray:none"
         d="m 851.53506,551.13981 c 2.06095,-2.01121 3.68737,-3.65565 3.61101,-3.65323 -0.29036,0.002 -8.20899,2.04344 -8.39004,2.16276 -0.18109,0.11929 -0.0695,0.71351 0.7151,3.86207 l 0.31923,1.28271 z"
         id="path4595" />
      <path
         style="fill:#ffffff;fill-opacity:1;fill-rule:nonzero;stroke:none;stroke-width:0;stroke-miterlimit:4;stroke-dasharray:none"
         d="m 882.44322,588.51061 c 1.0763,-0.61141 1.95638,-1.18875 1.95475,-1.27655 0.004,-0.0864 -2.74991,-2.93964 -6.1107,-6.33575 l -6.11405,-6.17509 4.05018,7.20991 c 2.23029,3.96836 4.10079,7.32194 4.16064,7.45163 0.0592,0.13037 0.98632,-0.26478 2.05922,-0.8742 z"
         id="path4591" />
      <path
         style="fill:#ffffff;fill-opacity:1;fill-rule:nonzero;stroke:none;stroke-width:0;stroke-miterlimit:4;stroke-dasharray:none"
         d="m 842.39838,553.42283 c 2.46754,0.68712 4.52184,1.21051 4.56974,1.15842 0.0853,-0.0944 -1.022,-4.49644 -1.17003,-4.64814 -0.0467,-0.0478 -1.62294,0.31236 -3.50723,0.79574 -1.88368,0.48811 -3.70618,0.9432 -4.05011,1.01867 -0.34658,0.0727 -0.55943,0.1964 -0.48141,0.27635 0.0836,0.0799 2.17089,0.70712 4.63904,1.39896 z"
         id="path4577" />
      <path
         style="fill:#ffffff;fill-opacity:1;fill-rule:nonzero;stroke:none;stroke-width:0;stroke-miterlimit:4;stroke-dasharray:none"
         d="m 861.38952,574.48053 c 1.09449,-0.27697 3.19813,-0.80762 4.68,-1.17978 1.47846,-0.37017 2.68817,-0.73688 2.68907,-0.81114 0.003,-0.23222 -7.74958,-2.34442 -7.9334,-2.16504 -0.0964,0.094 -0.45463,1.17874 -0.79652,2.41421 l -0.6297,2.24475 z"
         id="path4571" />
      <path
         style="fill:#ffffff;fill-opacity:1;fill-rule:nonzero;stroke:none;stroke-width:0;stroke-miterlimit:4;stroke-dasharray:none"
         d="m 876.83732,591.66253 c 0.51067,-0.29422 1.41891,-0.80032 2.01573,-1.12793 0.60017,-0.32553 1.0865,-0.61735 1.08149,-0.64847 -0.005,-0.0324 -1.68528,-3.04073 -3.73461,-6.67873 -2.04725,-3.64135 -3.90601,-6.96103 -4.12714,-7.37492 -0.22447,-0.41731 -0.40153,-0.62473 -0.39277,-0.4612 0.009,0.16351 0.87332,3.62364 1.91886,7.68486 1.04687,4.06396 1.996,7.78168 2.10899,8.25976 l 0.20533,0.87891 z"
         id="path4569" />
      <path
         style="fill:#ffffff;fill-opacity:1;fill-rule:nonzero;stroke:none;stroke-width:0;stroke-miterlimit:4;stroke-dasharray:none"
         d="m 858.74173,574.64035 c 0.30472,-0.73493 1.27139,-4.31042 1.22664,-4.51623 -0.0354,-0.14292 -1.95308,-0.79426 -4.26304,-1.44704 l -4.20275,-1.18837 3.58163,3.67023 c 1.96919,2.0179 3.61437,3.58623 3.65752,3.48141 z"
         id="path4557" />
      <path
         style="fill:#ffffff;fill-opacity:1;fill-rule:nonzero;stroke:none;stroke-width:0;stroke-miterlimit:4;stroke-dasharray:none"
         d="m 866.38879,576.31374 c 1.76711,-1.72446 3.14762,-3.13968 3.07131,-3.13859 -0.079,-3.3e-4 -2.35651,0.55998 -5.05826,1.2474 l -4.91313,1.24985 3.68632,3.77751 z"
         id="path4555" />
      <path
         style="fill:#ffffff;fill-opacity:1;fill-rule:nonzero;stroke:none;stroke-width:0;stroke-miterlimit:4;stroke-dasharray:none"
         d="m 855.76372,575.92556 c 1.32564,-0.35043 2.41425,-0.69904 2.41522,-0.77735 9e-4,-0.0742 -1.57517,-1.71536 -3.50037,-3.63478 l -3.50202,-3.49844 1.08414,4.27305 1.08756,4.2697 z"
         id="path4545" />
      <path
         style="fill:#ffffff;fill-opacity:1;fill-rule:nonzero;stroke:none;stroke-width:0;stroke-miterlimit:4;stroke-dasharray:none"
         d="m 859.61102,582.92788 3.21923,-3.14151 -3.72499,-3.81714 -0.23226,0.88302 c -0.12545,0.48663 -0.72545,2.62101 -1.33479,4.74718 -0.60394,2.12623 -1.11168,4.00381 -1.12447,4.16706 -0.0129,0.16864 1.4247,-1.10882 3.19728,-2.83861 z"
         id="path4521" />
      <path
         style="fill:#ffffff;fill-opacity:1;fill-rule:nonzero;stroke:none;stroke-width:0;stroke-miterlimit:4;stroke-dasharray:none"
         d="m 855.68773,585.41169 c 0.0615,-0.06 0.70297,-2.21752 1.42182,-4.79608 l 1.31514,-4.68665 -2.28537,0.5946 c -1.25712,0.32494 -2.35026,0.65661 -2.42816,0.73263 -0.0799,0.078 0.25221,1.68296 0.73219,3.56924 0.48064,1.88696 0.93293,3.71754 1.00567,4.06412 0.0667,0.34585 0.17721,0.58216 0.23871,0.52214 z"
         id="path4511" />
      <path
         style="fill:#ffffff;fill-opacity:1;fill-rule:nonzero;stroke:none;stroke-width:0;stroke-miterlimit:4;stroke-dasharray:none"
         d="m 831.67731,555.72849 c 1.72133,-1.67978 3.07023,-3.0481 2.99721,-3.04363 -0.10067,0.004 -8.40026,2.11538 -9.47197,2.40612 -0.11107,0.0297 0.59834,0.87426 1.5726,1.87262 l 1.77381,1.81769 z"
         id="path4493" />
      <path
         style="fill:#ffffff;fill-opacity:1;fill-rule:nonzero;stroke:none;stroke-width:0;stroke-miterlimit:4;stroke-dasharray:none"
         d="m 824.9799,562.26421 3.22469,-3.14684 -1.78114,-1.82521 c -1.35769,-1.39128 -1.81173,-1.75532 -1.91234,-1.53174 -0.0756,0.16179 -0.72546,2.4009 -1.44492,4.97472 l -1.31302,4.67791 z"
         id="path4461" />
      <path
         style="fill:#ffffff;fill-opacity:1;fill-rule:nonzero;stroke:none;stroke-width:0;stroke-miterlimit:4;stroke-dasharray:none"
         d="m 826.21427,575.84933 1.80743,-1.7638 -6.28767,-6.44322 1.25071,4.8976 c 0.68416,2.69293 1.29008,4.93657 1.33675,4.9844 0.0474,0.0485 0.89715,-0.70339 1.89278,-1.67498 z"
         id="path4419" />
      <path
         style="fill:#ffffff;fill-opacity:1;fill-rule:nonzero;stroke:none;stroke-width:0;stroke-miterlimit:4;stroke-dasharray:none"
         d="m 829.57448,579.35008 4.71816,1.33241 -2.90097,-3.06839 c -1.5992,-1.68657 -2.96374,-3.06984 -3.03799,-3.07076 -0.0736,-2.6e-4 -0.88998,0.78047 -1.81453,1.73467 l -1.68015,1.73838 z"
         id="path4417" />
      <path
         style="fill:#ffffff;fill-opacity:1;fill-rule:nonzero;stroke:none;stroke-width:0;stroke-miterlimit:4;stroke-dasharray:none"
         d="m 821.25471,577.03109 2.32723,0.62126 -1.20533,-4.74311 c -0.66226,-2.60624 -1.24787,-4.7443 -1.30051,-4.74494 -0.14307,-0.007 -2.37755,8.0834 -2.25434,8.16727 0.0576,0.0426 1.15562,0.35712 2.43295,0.69952 z"
         id="path4393" />
      <path
         style="fill:#ffffff;fill-opacity:1;fill-rule:nonzero;stroke:none;stroke-width:0;stroke-miterlimit:4;stroke-dasharray:none"
         d="m 889.99242,543.18488 c 3.00658,1.77266 5.55138,3.26487 5.65065,3.31874 0.12888,0.0623 -3.97665,-16.43215 -4.53731,-18.23569 -0.0306,-0.0956 -0.90112,1.25026 -1.9331,2.98572 -1.0367,1.73609 -2.58694,4.33352 -3.44921,5.77398 -0.85885,1.43712 -1.48042,2.68538 -1.3836,2.77366 0.10159,0.0876 2.64398,1.60888 5.65257,3.38359 z"
         id="path4951" />
      <path
         style="fill:#ffffff;fill-opacity:1;fill-rule:nonzero;stroke:none;stroke-width:0;stroke-miterlimit:4;stroke-dasharray:none"
         d="m 877.98213,536.05191 c 2.99785,1.76917 5.50137,3.21362 5.55944,3.21433 0.058,7.1e-4 1.6377,-2.57206 3.50594,-5.71994 1.87224,-3.14513 3.28852,-5.7199 3.15074,-5.71618 -0.21336,1e-4 -16.24601,4.04982 -17.66756,4.45783 -0.32796,0.0959 -0.39264,0.19506 -0.22769,0.34222 0.12237,0.11538 2.67991,1.65253 5.67911,3.42172 z"
         id="path4945" />
      <path
         style="fill:#ffffff;fill-opacity:1;fill-rule:nonzero;stroke:none;stroke-width:0;stroke-miterlimit:4;stroke-dasharray:none"
         d="m 846.62252,517.44934 c 3.77272,2.23238 6.89938,4.06929 6.94718,4.08001 0.22159,0.0452 2.32502,-3.78441 2.14761,-3.90878 -0.38151,-0.2734 -16.47449,-4.71631 -16.21609,-4.47887 0.14556,0.13413 3.35066,2.07193 7.1213,4.30764 z"
         id="path4939" />
      <path
         style="fill:#ffffff;fill-opacity:1;fill-rule:nonzero;stroke:none;stroke-width:0;stroke-miterlimit:4;stroke-dasharray:none"
         d="m 851.12999,525.85926 c 0.11871,-0.20919 0.63323,-1.09688 1.14764,-1.97375 0.51169,-0.87555 0.93557,-1.63739 0.93627,-1.69544 4.6e-4,-0.0952 -14.00993,-8.48213 -14.57147,-8.72125 -0.13099,-0.0536 2.57681,2.79639 6.01821,6.33797 5.8839,6.0568 6.27006,6.41371 6.46935,6.05247 z"
         id="path4933" />
      <path
         style="fill:#ffffff;fill-opacity:1;fill-rule:nonzero;stroke:none;stroke-width:0;stroke-miterlimit:4;stroke-dasharray:none"
         d="m 870.75554,570.53555 c 0.16531,-0.59891 1.33212,-4.74992 2.59129,-9.22052 1.26052,-4.47059 2.14293,-8.05723 1.965,-7.97298 -0.17725,0.085 -2.83807,1.5662 -5.91378,3.29628 l -5.58783,3.14363 0.4935,0.88986 c 0.27084,0.49079 1.76489,3.15513 3.32181,5.92489 l 2.82699,5.03232 z"
         id="path4921" />
      <path
         style="fill:#ffffff;fill-opacity:1;fill-rule:nonzero;stroke:none;stroke-width:0;stroke-miterlimit:4;stroke-dasharray:none"
         d="m 841.67019,542.40816 c 2.36882,0.64336 2.38976,0.64295 2.24717,-0.0103 -0.41189,-1.93272 -2.21716,-8.6905 -2.32247,-8.69179 -0.0952,-0.002 -2.37805,7.84911 -2.33006,8.01038 0.008,0.0237 1.08838,0.33469 2.40536,0.69176 z"
         id="path4913" />
      <path
         style="fill:#ffffff;fill-opacity:1;fill-rule:nonzero;stroke:none;stroke-width:0;stroke-miterlimit:4;stroke-dasharray:none"
         d="m 836.56637,548.26927 c 0.1763,-0.17204 4.39498,-14.98826 4.43379,-15.56777 0.0193,-0.31104 -0.46702,-0.40341 -2.17848,-0.41689 l -2.20498,-0.0161 -0.10132,8.07137 c -0.0543,4.44076 -0.0317,8.01011 0.051,7.92942 z"
         id="path4909" />
      <path
         style="fill:#ffffff;fill-opacity:1;fill-rule:nonzero;stroke:none;stroke-width:0;stroke-miterlimit:4;stroke-dasharray:none"
         d="m 835.83178,540.58537 0.10716,-8.32787 -2.28843,-0.0388 c -1.26102,-0.0208 -2.28234,0.07 -2.27376,0.19639 0.0292,0.43045 4.1265,16.27126 4.24119,16.38879 0.06,0.0615 0.15853,-3.63533 0.21384,-8.21854 z"
         id="path4907" />
      <path
         style="fill:#ffffff;fill-opacity:1;fill-rule:nonzero;stroke:none;stroke-width:0;stroke-miterlimit:4;stroke-dasharray:none"
         d="m 840.31542,547.29891 c 1.9564,-1.90917 3.52484,-3.50639 3.48013,-3.55221 -0.11937,-0.12232 -4.6736,-1.33322 -4.74535,-1.2632 -0.0752,0.0734 -2.28056,7.93807 -2.28587,8.15136 -0.004,0.0762 1.59398,-1.42612 3.55107,-3.33596 z"
         id="path4903" />
      <path
         style="fill:#ffffff;fill-opacity:1;fill-rule:nonzero;stroke:none;stroke-width:0;stroke-miterlimit:4;stroke-dasharray:none"
         d="m 856.99222,562.86669 c 3.4788,-1.95134 5.7775,-3.36075 5.73964,-3.52258 -0.0929,-0.40962 -6.28327,-11.33562 -6.42639,-11.33736 -0.1161,-10e-4 -5.07772,17.37415 -5.1027,17.87214 -0.007,0.13229 2.59759,-1.22615 5.78945,-3.0122 z"
         id="path4899" />
      <path
         style="fill:#ffffff;fill-opacity:1;fill-rule:nonzero;stroke:none;stroke-width:0;stroke-miterlimit:4;stroke-dasharray:none"
         d="m 830.57589,542.2591 2.41334,-0.62477 -0.49286,-1.93641 c -0.2672,-1.06398 -0.73786,-2.93935 -1.04425,-4.16654 -0.30707,-1.22787 -0.59235,-2.19419 -0.64087,-2.14684 -0.0957,0.0933 -2.58803,8.89849 -2.62154,9.2647 -0.0144,0.12878 1.06334,-0.0478 2.38618,-0.39014 z"
         id="path4897" />
      <path
         style="fill:#ffffff;fill-opacity:1;fill-rule:nonzero;stroke:none;stroke-width:0;stroke-miterlimit:4;stroke-dasharray:none"
         d="m 835.23983,550.40826 c -0.0754,-0.29733 -0.57145,-2.2466 -1.10503,-4.33137 l -0.96644,-3.79423 -0.71187,0.18372 c -0.39149,0.10055 -1.51059,0.40152 -2.48472,0.66374 l -1.77483,0.47662 3.59001,3.66737 c 2.79956,2.86452 3.55874,3.55113 3.45314,3.1339 z"
         id="path4889" />
      <path
         style="fill:#ffffff;fill-opacity:1;fill-rule:nonzero;stroke:none;stroke-width:0;stroke-miterlimit:4;stroke-dasharray:none"
         d="m 843.00481,566.3587 6.80158,0.0811 -13.43625,-13.76864 -0.0858,6.80085 c -0.0484,3.74269 -0.0858,6.80086 -0.0831,6.80359 0,0 3.0615,0.0408 6.80359,0.0831 z"
         id="path4885" />
      <path
         style="fill:#ffffff;fill-opacity:1;fill-rule:nonzero;stroke:none;stroke-width:0;stroke-miterlimit:4;stroke-dasharray:none"
         d="m 842.95091,573.97289 6.84161,-6.67645 -6.79811,-0.0884 -6.80085,-0.0858 -0.0875,6.71981 c -0.0452,3.6968 -0.0634,6.73765 -0.0401,6.76157 0.026,0.0266 3.12177,-2.95838 6.88492,-6.63069 z"
         id="path4867" />
      <path
         style="fill:#ffffff;fill-opacity:1;fill-rule:nonzero;stroke:none;stroke-width:0;stroke-miterlimit:4;stroke-dasharray:none"
         d="m 899.37574,535.04466 c 0.0615,-0.06 0.40998,-1.17119 0.77431,-2.47526 l 0.66695,-2.36516 -1.1062,-0.31195 c -4.53734,-1.26875 -7.29774,-2.02493 -7.41585,-2.02841 -0.0736,-0.002 1.46208,1.63628 3.4186,3.64121 1.95652,2.00492 3.60342,3.59691 3.66221,3.53954 z"
         id="path5455" />
      <path
         style="fill:#ffffff;fill-opacity:1;fill-rule:nonzero;stroke:none;stroke-width:0;stroke-miterlimit:4;stroke-dasharray:none"
         d="m 885.44818,528.26982 c 2.19846,-0.55516 4.04315,-1.05725 4.09918,-1.11193 0.0806,-0.0787 -8.86379,-2.66457 -9.25932,-2.67482 -0.10264,-0.004 0.95929,4.59899 1.09467,4.73771 0.036,0.0369 1.86427,-0.39179 4.06547,-0.95096 z"
         id="path5433" />
      <path
         style="fill:#ffffff;fill-opacity:1;fill-rule:nonzero;stroke:none;stroke-width:0;stroke-miterlimit:4;stroke-dasharray:none"
         d="m 876.52171,530.57184 c 2.2881,-0.59727 4.15417,-1.13623 4.14948,-1.19436 -0.007,-0.0547 -0.27811,-1.16675 -0.60253,-2.46574 l -0.59363,-2.36503 -3.60668,3.51961 c -1.98305,1.93518 -3.58188,3.53817 -3.55309,3.55674 0.0235,0.0184 1.91702,-0.45395 4.20647,-1.05119 z"
         id="path5415" />
      <path
         style="fill:#ffffff;fill-opacity:1;fill-rule:nonzero;stroke:none;stroke-width:0;stroke-miterlimit:4;stroke-dasharray:none"
         d="m 875.43386,527.81794 3.73719,-3.64697 -0.58038,-0.18872 c -0.44453,-0.14519 -3.98437,-1.156 -4.40514,-1.25634 -0.0706,-0.0191 -2.46226,8.27547 -2.47844,8.60477 -0.007,0.0735 1.67129,-1.50687 3.72678,-3.51273 z"
         id="path5407" />
      <path
         style="fill:#ffffff;fill-opacity:1;fill-rule:nonzero;stroke:none;stroke-width:0;stroke-miterlimit:4;stroke-dasharray:none"
         d="m 886.16972,549.5688 c 4.90978,-1.25327 8.92707,-2.34931 8.92815,-2.43842 0.003,-0.27409 -11.10537,-6.81402 -11.29372,-6.65023 -0.34749,0.31242 -6.76194,11.15328 -6.66059,11.25714 0.0545,0.0616 4.12042,-0.91518 9.02616,-2.16849 z"
         id="path5385" />
      <path
         style="fill:#ffffff;fill-opacity:1;fill-rule:nonzero;stroke:none;stroke-width:0;stroke-miterlimit:4;stroke-dasharray:none"
         d="m 864.66646,533.5734 c 2.61375,-0.6696 4.75188,-1.2606 4.74973,-1.30519 -0.004,-0.11079 -7.64749,-2.24527 -7.97722,-2.22635 -0.13508,0.006 -0.5358,1.08052 -0.8866,2.38206 l -0.6413,2.36547 z"
         id="path5375" />
      <path
         style="fill:#ffffff;fill-opacity:1;fill-rule:nonzero;stroke:none;stroke-width:0;stroke-miterlimit:4;stroke-dasharray:none"
         d="m 876.41448,551.39619 c 0.23221,-0.23779 6.68852,-11.22304 6.69319,-11.38368 0.003,-0.1843 -10.86859,-6.74225 -11.23681,-6.77781 -0.12678,-0.0124 0.81691,4.09489 2.10042,9.12726 1.2815,5.02897 2.38437,9.09698 2.4432,9.03423 z"
         id="path5373" />
      <path
         style="fill:#ffffff;fill-opacity:1;fill-rule:nonzero;stroke:none;stroke-width:0;stroke-miterlimit:4;stroke-dasharray:none"
         d="m 859.20533,534.58292 c 0.0451,-0.044 0.36998,-1.15884 0.72843,-2.47852 l 0.65181,-2.39707 -3.88461,-1.08658 c -2.13717,-0.59329 -4.06641,-1.12798 -4.29527,-1.18614 -0.25511,-0.0646 0.92106,1.26374 3.15559,3.55902 1.96099,2.01523 3.60096,3.63134 3.64405,3.58929 z"
         id="path5359" />
      <path
         style="fill:#ffffff;fill-opacity:1;fill-rule:nonzero;stroke:none;stroke-width:0;stroke-miterlimit:4;stroke-dasharray:none"
         d="m 866.97207,536.07546 3.3101,-3.23019 -3.62762,0.9239 c -1.99465,0.50836 -4.32256,1.10312 -5.16993,1.32436 l -1.54231,0.40045 3.71966,3.81167 z"
         id="path5357" />
      <path
         style="fill:#ffffff;fill-opacity:1;fill-rule:nonzero;stroke:none;stroke-width:0;stroke-miterlimit:4;stroke-dasharray:none"
         d="m 884.62433,565.30892 c 2.46487,0.68438 4.59229,1.24579 4.72395,1.24673 0.13164,0.002 -1.13608,-1.40343 -2.8132,-3.12203 l -3.05281,-3.12833 -1.80675,1.76313 c -0.99563,0.9716 -1.74729,1.81451 -1.67181,1.88092 0.0764,0.0668 2.15707,0.67791 4.62062,1.35958 z"
         id="path5349" />
      <path
         style="fill:#ffffff;fill-opacity:1;fill-rule:nonzero;stroke:none;stroke-width:0;stroke-miterlimit:4;stroke-dasharray:none"
         d="m 881.26699,561.7947 1.87919,-1.83382 -3.13617,-3.21375 c -1.72713,-1.76985 -3.13491,-3.15361 -3.1297,-3.07998 -9.1e-4,0.0742 0.56483,2.34644 1.25425,5.05024 l 1.25051,4.9138 z"
         id="path5345" />
      <path
         style="fill:#ffffff;fill-opacity:1;fill-rule:nonzero;stroke:none;stroke-width:0;stroke-miterlimit:4;stroke-dasharray:none"
         d="m 876.22359,562.93289 c 1.20846,0.34155 2.23994,0.58102 2.29318,0.5344 0.10454,-0.10202 -2.18959,-9.40045 -2.32437,-9.421 -0.12873,-0.0198 -2.36663,8.07407 -2.2598,8.17261 0.0522,0.0478 1.08191,0.36634 2.29099,0.71399 z"
         id="path5341" />
      <path
         style="fill:#ffffff;fill-opacity:1;fill-rule:nonzero;stroke:none;stroke-width:0;stroke-miterlimit:4;stroke-dasharray:none"
         d="m 881.60252,569.31572 c 0.34124,-0.0782 1.83257,-0.45025 3.3091,-0.82787 1.47927,-0.38029 3.10677,-0.7905 3.61662,-0.90784 l 0.92904,-0.21821 -1.18569,-0.32778 c -0.65203,-0.18285 -2.85165,-0.80321 -4.88644,-1.37633 -3.6167,-1.01985 -3.69761,-1.02893 -3.56091,-0.39123 0.26232,1.18749 1.01341,4.03923 1.08409,4.11166 0.0387,0.0397 0.35028,0.0117 0.69419,-0.0624 z"
         id="path5339" />
      <path
         style="fill:#ffffff;fill-opacity:1;fill-rule:nonzero;stroke:none;stroke-width:0;stroke-miterlimit:4;stroke-dasharray:none"
         d="m 860.09836,542.78323 3.21922,-3.1415 -3.72699,-3.81919 -0.23752,0.87215 c -0.13218,0.48385 -0.73085,2.62095 -1.3348,4.74718 -0.60332,2.13096 -1.10365,4.01067 -1.11651,4.1793 -0.0122,0.16933 1.42196,-1.10614 3.1966,-2.83794 z"
         id="path5335" />
      <path
         style="fill:#ffffff;fill-opacity:1;fill-rule:nonzero;stroke:none;stroke-width:0;stroke-miterlimit:4;stroke-dasharray:none"
         d="m 856.26594,535.71036 2.42099,-0.64291 -1.70994,-1.84933 c -0.9423,-1.01887 -2.52072,-2.63634 -3.51094,-3.59778 l -1.79899,-1.74642 1.08728,4.23797 1.09067,4.23599 z"
         id="path5351" />
      <path
         style="fill:#ffffff;fill-opacity:1;fill-rule:nonzero;stroke:none;stroke-width:0;stroke-miterlimit:4;stroke-dasharray:none"
         d="m 856.19464,545.24928 c 0.13325,-0.13003 2.71305,-9.45939 2.61314,-9.46062 -0.0472,-5.7e-4 -1.14304,0.27097 -2.43129,0.60093 l -2.34416,0.59862 0.20272,0.87077 c 0.64159,2.75048 1.88989,7.45832 1.95959,7.3903 z"
         id="path5331" />
      <path
         style="fill:#ffffff;fill-opacity:1;fill-rule:nonzero;stroke:none;stroke-width:0;stroke-miterlimit:4;stroke-dasharray:none"
         d="m 896.46518,536.45104 2.42099,-0.64291 -1.70995,-1.84933 c -0.9423,-1.01887 -2.52072,-2.63634 -3.51093,-3.59778 l -1.79899,-1.74642 1.08727,4.23797 1.09068,4.23599 z"
         id="path5351-1" />
      <path
         style="fill:#ffffff;fill-opacity:1;fill-rule:nonzero;stroke:none;stroke-width:0;stroke-miterlimit:4;stroke-dasharray:none"
         d="m 896.39388,545.98996 c 0.13325,-0.13003 2.71304,-9.4594 2.61314,-9.46062 -0.0472,-5.7e-4 -1.14304,0.27097 -2.43129,0.60093 l -2.34416,0.59862 0.20272,0.87077 c 0.64159,2.75048 1.88989,7.45832 1.95959,7.3903 z"
         id="path5331-2" />
      <path
         style="fill:#ffffff;fill-opacity:1;fill-rule:nonzero;stroke:none;stroke-width:0;stroke-miterlimit:4;stroke-dasharray:none"
         d="m 863.5908,559.12646 c 0.0369,-0.036 2.63134,-1.50054 5.76816,-3.25823 3.13547,-1.7577 5.69902,-3.23747 5.69494,-3.29086 -0.009,-0.1581 -18.07447,-5.17607 -18.0764,-5.0181 -0.003,0.15864 6.20498,11.27727 6.41837,11.49594 0.0707,0.0724 0.16012,0.10523 0.1949,0.0713 z"
         id="path5319" />
      <path
         style="fill:#ffffff;fill-opacity:1;fill-rule:nonzero;stroke:none;stroke-width:0;stroke-miterlimit:4;stroke-dasharray:none"
         d="m 875.81066,570.8134 c 2.19115,-0.56403 4.07993,-1.0838 4.19689,-1.15125 0.23451,-0.12881 -0.88644,-4.70477 -1.15039,-4.70867 -0.0837,-10e-4 -1.69881,1.54839 -3.59225,3.44279 l -3.43358,3.44543 z"
         id="path5317" />
      <path
         style="fill:#ffffff;fill-opacity:1;fill-rule:nonzero;stroke:none;stroke-width:0;stroke-miterlimit:4;stroke-dasharray:none"
         d="m 874.93328,567.96484 3.7667,-3.66459 -0.88164,-0.23494 c -0.48322,-0.12743 -1.63204,-0.43382 -2.55,-0.68001 l -1.67171,-0.44714 -1.06477,3.81128 c -0.58127,2.09478 -1.13043,4.04747 -1.21302,4.34153 -0.1158,0.41585 0.6833,-0.27592 3.61469,-3.12587 z"
         id="path5311" />
      <path
         style="fill:#ffffff;fill-opacity:1;fill-rule:nonzero;stroke:none;stroke-width:0;stroke-miterlimit:4;stroke-dasharray:none"
         d="m 850.37467,547.96843 c 2.2386,-0.57966 4.06728,-1.09814 4.06792,-1.15081 0.002,-0.14176 -9.09191,-2.72745 -9.21205,-2.62088 -0.054,0.0471 0.1105,0.90341 0.36161,1.90305 0.25718,1.00041 0.52098,2.06639 0.5909,2.36771 0.11527,0.5132 0.39792,0.47749 4.19162,-0.49907 z"
         id="path5287" />
      <path
         style="fill:#ffffff;fill-opacity:1;fill-rule:nonzero;stroke:none;stroke-width:0;stroke-miterlimit:4;stroke-dasharray:none"
         d="m 850.79542,555.80648 c 1.20436,0.34691 2.2277,0.58898 2.27547,0.5477 0.0478,-0.0466 0.60928,-1.95535 1.24614,-4.23376 l 1.16141,-4.15108 -3.57182,3.48559 c -1.9646,1.91718 -3.5144,3.53897 -3.43825,3.60606 0.073,0.0634 1.12132,0.40127 2.32705,0.74549 z"
         id="path5285" />
      <path
         style="fill:#ffffff;fill-opacity:1;fill-rule:nonzero;stroke:none;stroke-width:0;stroke-miterlimit:4;stroke-dasharray:none"
         d="m 840.45109,550.47638 c 1.85169,-0.46756 3.77791,-0.95583 4.28311,-1.07929 l 0.91289,-0.22382 -0.64378,-2.5709 -0.64711,-2.57431 -3.68867,3.59962 c -2.02884,1.97987 -3.66465,3.62425 -3.63602,3.65359 0.028,0.0287 1.5678,-0.33195 3.41956,-0.80491 z"
         id="path5277" />
      <path
         style="fill:#ffffff;fill-opacity:1;fill-rule:nonzero;stroke:none;stroke-width:0;stroke-miterlimit:4;stroke-dasharray:none"
         d="m 851.66225,561.56432 c 0.61472,-2.17944 1.12282,-4.08808 1.12469,-4.24065 0.009,-0.25309 -4.04492,-1.56118 -4.51273,-1.4582 -0.10631,0.0251 0.26204,1.81745 0.8216,3.98761 0.55622,2.16674 1.10977,4.33074 1.23022,4.80688 0.20677,0.81478 0.27764,0.65225 1.33622,-3.09564 z"
         id="path5271" />
      <path
         style="fill:#ffffff;fill-opacity:1;fill-rule:nonzero;stroke:none;stroke-width:0;stroke-miterlimit:4;stroke-dasharray:none"
         d="m 860.66051,569.3593 c 5.01763,1.41507 9.12589,2.54355 9.12696,2.51183 0.005,-0.17684 -6.53538,-11.7006 -6.63276,-11.68829 -0.15891,0.019 -11.61338,6.47029 -11.619,6.54381 -10e-4,0.0371 4.10442,1.2216 9.1248,2.63265 z"
         id="path5265" />
      <path
         style="fill:#ffffff;fill-opacity:1;fill-rule:nonzero;stroke:none;stroke-width:0;stroke-miterlimit:4;stroke-dasharray:none"
         d="m 870.18454,582.97413 c 1.29358,-0.32449 2.37419,-0.67994 2.39907,-0.78294 0.0276,-0.10432 -0.3502,-1.73143 -0.83692,-3.61779 -0.48804,-1.88907 -0.95088,-3.74138 -1.03137,-4.11642 -0.0797,-0.38111 -0.17939,-0.56935 -0.21833,-0.42196 -0.51822,1.7971 -2.64916,9.37037 -2.65812,9.44048 -0.003,0.0513 1.04935,-0.1742 2.34567,-0.50137 z"
         id="path5263" />
      <path
         style="fill:#ffffff;fill-opacity:1;fill-rule:nonzero;stroke:none;stroke-width:0;stroke-miterlimit:4;stroke-dasharray:none"
         d="m 845.23326,557.28947 1.88738,-1.84181 -4.88316,-1.36752 c -2.68688,-0.75056 -4.9473,-1.36897 -5.02356,-1.37192 -0.0763,-0.004 1.27203,1.44152 2.99649,3.20863 l 3.13617,3.21376 z"
         id="path5249" />
      <path
         style="fill:#ffffff;fill-opacity:1;fill-rule:nonzero;stroke:none;stroke-width:0;stroke-miterlimit:4;stroke-dasharray:none"
         d="m 849.79014,565.57913 c 0.003,-0.22682 -2.33927,-9.47318 -2.41995,-9.55586 -0.0393,-0.0403 -0.88517,0.71704 -1.88079,1.68863 l -1.80676,1.76314 3.05282,3.12834 c 1.68044,1.72201 3.05432,3.06015 3.05468,2.97575 z"
         id="path5247" />
      <path
         style="fill:#ffffff;fill-opacity:1;fill-rule:nonzero;stroke:none;stroke-width:0;stroke-miterlimit:4;stroke-dasharray:none"
         d="m 867.10969,583.33859 c 0.1066,-0.10403 2.61819,-8.99061 2.64357,-9.35423 0.0122,-0.16933 -1.38712,1.07214 -3.10846,2.75192 l -3.1338,3.05815 1.76314,1.80675 c 0.96892,0.9929 1.79593,1.77608 1.83555,1.73741 z"
         id="path5245" />
      <path
         style="fill:#ffffff;fill-opacity:1;fill-rule:nonzero;stroke:none;stroke-width:0;stroke-miterlimit:4;stroke-dasharray:none"
         d="m 874.98893,591.41848 c -0.003,-0.33021 -2.03675,-8.14882 -2.15078,-8.26567 -0.0707,-0.0724 -0.69441,0.0253 -1.38475,0.21468 -0.69641,0.19 -1.78617,0.46634 -2.42875,0.61445 l -1.16662,0.26731 3.56628,3.65451 c 1.96119,2.00971 3.56436,3.59369 3.56459,3.51475 z"
         id="path5243" />
      <path
         style="fill:#ffffff;fill-opacity:1;fill-rule:nonzero;stroke:none;stroke-width:0;stroke-miterlimit:4;stroke-dasharray:none"
         d="m 870.56484,590.88369 4.01661,1.1152 -1.75467,-1.89372 c -0.96364,-1.04074 -2.56007,-2.67667 -3.54294,-3.63059 l -1.79028,-1.73892 -0.67191,2.32864 c -0.36674,1.27974 -0.58042,2.41145 -0.46894,2.51612 0.10975,0.10101 2.00636,0.68889 4.21213,1.30327 z"
         id="path5241" />
      <path
         style="fill:#ffffff;fill-opacity:1;fill-rule:nonzero;stroke:none;stroke-width:0;stroke-miterlimit:4;stroke-dasharray:none"
         d="m 830.63846,550.11451 4.22107,1.17982 -3.42716,-3.60215 c -1.88255,-1.98239 -3.48721,-3.60627 -3.5608,-3.6065 -0.0742,-9.1e-4 -0.4326,1.0892 -0.79732,2.42433 l -0.65754,2.42401 z"
         id="path5233" />
      <path
         style="fill:#ffffff;fill-opacity:1;fill-rule:nonzero;stroke:none;stroke-width:0;stroke-miterlimit:4;stroke-dasharray:none"
         d="m 861.80506,585.12259 c 2.5873,-0.65979 4.74689,-1.23972 4.79746,-1.28907 0.0478,-0.0467 -0.70399,-0.90323 -1.67291,-1.89612 l -1.76314,-1.80676 -3.09895,3.02414 c -1.70561,1.66444 -3.07031,3.05348 -3.03427,3.09041 0.0367,0.0376 2.1839,-0.4689 4.7718,-1.1226 z"
         id="path5227" />
      <path
         style="fill:#ffffff;fill-opacity:1;fill-rule:nonzero;stroke:none;stroke-width:0;stroke-miterlimit:4;stroke-dasharray:none"
         d="m 861.21793,588.24899 c 2.20571,0.61976 4.05821,1.13597 4.1216,1.14214 0.0608,0.003 0.42508,-1.08186 0.80465,-2.4168 l 0.68934,-2.42835 -3.71166,0.94852 c -2.0427,0.5179 -4.23038,1.07454 -4.86295,1.23291 -0.6299,0.1611 -1.1246,0.31036 -1.09593,0.33974 0.026,0.0266 1.85265,0.55874 4.05495,1.18184 z"
         id="path5217" />
      <path
         style="fill:#ffffff;fill-opacity:1;fill-rule:nonzero;stroke:none;stroke-width:0;stroke-miterlimit:4;stroke-dasharray:none"
         d="m 829.66653,553.23621 c 2.59823,-0.67046 4.68097,-1.25943 4.62629,-1.31546 -0.052,-0.0533 -1.88661,-0.59765 -4.07351,-1.21044 l -3.97407,-1.11401 -0.55482,1.80747 c -1.04054,3.37676 -1.4085,3.20886 3.97611,1.83244 z"
         id="path5199" />
      <path
         style="fill:#ffffff;fill-opacity:1;fill-rule:nonzero;stroke:none;stroke-width:0;stroke-miterlimit:4;stroke-dasharray:none"
         d="m 848.47282,577.76147 c 2.36139,-0.51672 4.08508,-1.06214 4.08046,-1.29243 -0.002,-0.14519 -0.45493,-2.05748 -1.01156,-4.24515 -0.65904,-2.59337 -1.06628,-3.80087 -1.17093,-3.46927 -0.24164,0.76676 -2.53018,8.9154 -2.53911,9.03884 -0.003,0.0608 0.28368,0.046 0.64114,-0.032 z"
         id="path5197" />
      <path
         style="fill:#ffffff;fill-opacity:1;fill-rule:nonzero;stroke:none;stroke-width:0;stroke-miterlimit:4;stroke-dasharray:none"
         d="m 847.0946,577.66294 c 0.08,-0.078 2.659,-9.29059 2.66363,-9.50457 10e-4,-0.0837 -1.40507,1.21506 -3.1264,2.89484 l -3.12834,3.05282 1.76381,1.80744 c 0.97159,0.99563 1.79522,1.78078 1.82728,1.74949 z"
         id="path5177" />
      <path
         style="fill:#ffffff;fill-opacity:1;fill-rule:nonzero;stroke:none;stroke-width:0;stroke-miterlimit:4;stroke-dasharray:none"
         d="m 853.95764,581.72232 c -0.58366,-2.29739 -1.09833,-4.21785 -1.14028,-4.26629 -0.0905,-0.0985 -4.50129,1.03206 -4.66939,1.1961 -0.0588,0.0573 1.46455,1.70858 3.38106,3.67251 l 3.4856,3.57182 z"
         id="path5175" />
      <path
         style="fill:#ffffff;fill-opacity:1;fill-rule:nonzero;stroke:none;stroke-width:0;stroke-miterlimit:4;stroke-dasharray:none"
         d="m 850.44911,585.22353 4.21368,1.1777 -1.80669,-1.94703 c -0.99432,-1.07218 -2.61475,-2.73269 -3.60229,-3.6914 l -1.79628,-1.74507 -0.61983,2.21112 c -0.34231,1.21453 -0.62013,2.34479 -0.61405,2.51097 0.009,0.1743 1.80238,0.80524 4.22546,1.48371 z"
         id="path5169" />
      <path
         style="fill:#ffffff;fill-opacity:1;fill-rule:nonzero;stroke:none;stroke-width:0;stroke-miterlimit:4;stroke-dasharray:none"
         d="m 841.85344,579.46904 4.97345,-1.2687 -3.66765,-3.75837 -3.18437,3.1075 c -1.7514,1.70912 -3.16572,3.1266 -3.13966,3.14784 0.0255,0.0218 2.28186,-0.52848 5.01819,-1.22831 z"
         id="path5161" />
      <path
         style="fill:#ffffff;fill-opacity:1;fill-rule:nonzero;stroke:none;stroke-width:0;stroke-miterlimit:4;stroke-dasharray:none"
         d="m 841.24413,582.64242 c 2.11698,0.58763 3.92268,1.06545 4.01246,1.06722 0.13167,9e-4 1.38778,-3.94508 1.4591,-4.58699 0.0111,-0.0842 -0.16479,-0.11002 -0.38756,-0.0554 -3.73174,0.88009 -9.15632,2.3222 -9.05737,2.40308 0.0684,0.0586 1.85501,0.58712 3.97337,1.17206 z"
         id="path5155" />
      <path
         style="fill:#ffffff;fill-opacity:1;fill-rule:nonzero;stroke:none;stroke-width:0;stroke-miterlimit:4;stroke-dasharray:none"
         d="m 828.71715,566.18412 6.80091,0.0804 0.16832,-13.77593 -6.92976,6.76246 c -3.81167,3.71966 -6.9077,6.7837 -6.88438,6.80761 0.0233,0.0239 3.10285,0.0831 6.84493,0.12548 z"
         id="path5147" />
      <path
         style="fill:#ffffff;fill-opacity:1;fill-rule:nonzero;stroke:none;stroke-width:0;stroke-miterlimit:4;stroke-dasharray:none"
         d="m 835.42343,574.00786 0.0842,-6.88864 -13.77594,-0.16832 13.60763,13.94426 z"
         id="path5141" />
    </g>
  </g>
</svg>
